<?xml version="1.0" encoding="UTF-8" standalone="no"?>
<svg
   xmlns:dc="http://purl.org/dc/elements/1.1/"
   xmlns:cc="http://creativecommons.org/ns#"
   xmlns:rdf="http://www.w3.org/1999/02/22-rdf-syntax-ns#"
   xmlns:svg="http://www.w3.org/2000/svg"
   xmlns="http://www.w3.org/2000/svg"
   xmlns:sodipodi="http://sodipodi.sourceforge.net/DTD/sodipodi-0.dtd"
   xmlns:inkscape="http://www.inkscape.org/namespaces/inkscape"
   inkscape:version="1.0 (4035a4fb49, 2020-05-01)"
   id="svg8"
   version="1.1"
   viewBox="0 0 17.914669 22.077572"
   height="22.077572mm"
   width="17.914669mm"
   sodipodi:docname="uptight icons contact.svg">
  <defs
     id="defs2">
    <inkscape:path-effect
       effect="perspective-envelope"
       up_left_point="1176.4785,477.57291"
       up_right_point="1218.3838,453.19738"
       down_left_point="1196.324,491.12077"
       down_right_point="1239.8341,465.81176"
       id="path-effect1614"
       is_visible="true"
       lpeversion="1"
       deform_type="perspective"
       horizontal_mirror="false"
       vertical_mirror="false"
       overflow_perspective="false" />
    <inkscape:path-effect
       effect="perspective-envelope"
       up_left_point="1087.7069,509.56507"
       up_right_point="1127.8198,492.16583"
       down_left_point="1117.2669,520.1731"
       down_right_point="1148.3996,513.43791"
       id="path-effect1556"
       is_visible="true"
       lpeversion="1"
       deform_type="perspective"
       horizontal_mirror="false"
       vertical_mirror="false"
       overflow_perspective="false" />
    <inkscape:path-effect
       effect="fillet_chamfer"
       id="path-effect860"
       is_visible="true"
       lpeversion="1"
       satellites_param="F,0,1,1,0,43.494204,0,1 @ F,0,1,1,0,43.494204,0,1 @ F,0,1,1,0,43.494204,0,1 @ F,0,1,1,0,43.494204,0,1 @ F,0,0,1,0,2,0,1 @ F,0,0,1,0,2,0,1 @ F,0,0,1,0,2,0,1 @ F,0,0,1,0,2,0,1 @ F,0,0,1,0,2,0,1 @ F,0,0,1,0,2,0,1 @ F,0,0,1,0,2,0,1 @ F,0,0,1,0,2,0,1 @ F,0,0,1,0,2,0,1 @ F,0,0,1,0,2,0,1 @ F,0,1,1,0,43.494204,0,1 @ F,0,0,1,0,43.494204,0,1 @ F,0,1,1,0,43.494204,0,1"
       unit="px"
       method="auto"
       mode="F"
       radius="2"
       chamfer_steps="1"
       flexible="false"
       use_knot_distance="true"
       apply_no_radius="true"
       apply_with_radius="true"
       only_selected="false"
       hide_knots="false" />
    <inkscape:path-effect
       effect="fillet_chamfer"
       id="path-effect856"
       is_visible="true"
       lpeversion="1"
       satellites_param="F,0,1,1,0,30.284272,0,1 @ F,0,1,1,0,30.284272,0,1 @ F,0,1,1,0,30.284272,0,1 @ F,0,1,1,0,30.284272,0,1 @ F,0,0,1,0,2,0,1 @ F,0,0,1,0,2,0,1 @ F,0,0,1,0,2,0,1 @ F,0,0,1,0,2,0,1 @ F,0,0,1,0,2,0,1 @ F,0,0,1,0,2,0,1 @ F,0,0,1,0,2,0,1 @ F,0,0,1,0,2,0,1 @ F,0,0,1,0,2,0,1 @ F,0,0,1,0,2,0,1 @ F,0,0,1,0,2,0,1 @ F,0,0,1,0,30.284272,0,1 @ F,0,1,1,0,30.284272,0,1"
       unit="px"
       method="auto"
       mode="F"
       radius="2"
       chamfer_steps="1"
       flexible="false"
       use_knot_distance="true"
       apply_no_radius="true"
       apply_with_radius="true"
       only_selected="false"
       hide_knots="false" />
    <inkscape:path-effect
       hide_knots="false"
       only_selected="false"
       apply_with_radius="true"
       apply_no_radius="true"
       use_knot_distance="true"
       flexible="false"
       chamfer_steps="1"
       radius="2"
       mode="F"
       method="auto"
       unit="px"
       satellites_param="F,0,1,1,0,43.494204,0,1 @ F,0,1,1,0,43.494204,0,1 @ F,0,1,1,0,43.494204,0,1 @ F,0,1,1,0,43.494204,0,1 @ F,0,0,1,0,2,0,1 @ F,0,0,1,0,2,0,1 @ F,0,0,1,0,2,0,1 @ F,0,0,1,0,2,0,1 @ F,0,0,1,0,2,0,1 @ F,0,0,1,0,2,0,1 @ F,0,0,1,0,2,0,1 @ F,0,0,1,0,2,0,1 @ F,0,0,1,0,2,0,1 @ F,0,0,1,0,2,0,1 @ F,0,1,1,0,43.494204,0,1 @ F,0,0,1,0,43.494204,0,1 @ F,0,1,1,0,43.494204,0,1"
       lpeversion="1"
       is_visible="true"
       id="path-effect852"
       effect="fillet_chamfer" />
    <inkscape:path-effect
       effect="fillet_chamfer"
       id="path-effect879"
       is_visible="true"
       lpeversion="1"
       satellites_param="F,0,1,1,0,59.285716,0,1 @ F,0,1,1,0,59.285716,0,1 @ F,0,1,1,0,59.285716,0,1 @ F,0,1,1,0,59.285716,0,1 @ F,0,1,1,0,59.285716,0,1 @ F,0,0,1,0,59.285716,0,1 @ F,0,1,1,0,59.285716,0,1 | F,0,0,1,0,1,0,1 @ F,0,0,1,0,1,0,1 @ F,0,0,1,0,1,0,1 @ F,0,0,1,0,1,0,1 @ F,0,1,1,0,59.285716,0,1 @ F,0,0,1,0,1,0,1 @ F,0,0,1,0,1,0,1 @ F,0,0,1,0,1,0,1 @ F,0,0,1,0,1,0,1 @ F,0,1,1,0,59.285716,0,1 @ F,0,0,1,0,1,0,1"
       unit="px"
       method="auto"
       mode="F"
       radius="3"
       chamfer_steps="1"
       flexible="false"
       use_knot_distance="true"
       apply_no_radius="true"
       apply_with_radius="true"
       only_selected="false"
       hide_knots="false" />
  </defs>
  <sodipodi:namedview
     fit-margin-bottom="0"
     fit-margin-right="0"
     fit-margin-left="0"
     fit-margin-top="0"
     inkscape:guide-bbox="true"
     showguides="true"
     inkscape:pagecheckerboard="false"
     showborder="false"
     showgrid="false"
     inkscape:document-rotation="0"
     inkscape:current-layer="layer1"
     inkscape:document-units="px"
     inkscape:cy="65.651899"
     inkscape:cx="-3.1520185"
     inkscape:zoom="3.2455999"
     inkscape:pageshadow="2"
     inkscape:pageopacity="1"
     borderopacity="1.0"
     bordercolor="#666666"
     pagecolor="#ffffff"
     id="base"
     inkscape:snap-smooth-nodes="true"
     inkscape:window-width="1920"
     inkscape:window-height="986"
     inkscape:window-x="-11"
     inkscape:window-y="-11"
     inkscape:window-maximized="1"
     inkscape:snap-global="true" />
  <metadata
     id="metadata5">
    <rdf:RDF>
      <cc:Work
         rdf:about="">
        <dc:format>image/svg+xml</dc:format>
        <dc:type
           rdf:resource="http://purl.org/dc/dcmitype/StillImage" />
        <dc:title></dc:title>
      </cc:Work>
    </rdf:RDF>
  </metadata>
  <g
     transform="translate(-95.758629,-627.21913)"
     id="layer1"
     inkscape:groupmode="layer"
     inkscape:label="Layer 1">
    <g
       id="g876">
      <path
         id="path861"
         d="m 104.71241,644.28651 a 2.5050105,2.5050227 0 0 0 -2.50162,2.5051 2.5050105,2.5050227 0 0 0 2.50508,2.50509 2.5050105,2.5050227 0 0 0 2.50479,-2.50509 2.5050105,2.5050227 0 0 0 -2.50479,-2.5051 2.5050105,2.5050227 0 0 0 -0.003,0 z"
         style="fill:#1a1a1a;stroke-width:2.64583;stroke-linecap:round;stroke-linejoin:round;paint-order:stroke fill markers" />
      <path
         id="path857"
         d="m 111.16482,638.59766 a 2.5050105,2.5050227 0 0 0 -2.50164,2.5048 2.5050105,2.5050227 0 0 0 2.50508,2.5051 2.5050105,2.5050227 0 0 0 2.5048,-2.5051 2.5050105,2.5050227 0 0 0 -2.5048,-2.5048 2.5050105,2.5050227 0 0 0 -0.003,0 z"
         style="fill:#1a1a1a;stroke-width:2.64583;stroke-linecap:round;stroke-linejoin:round;paint-order:stroke fill markers" />
      <path
         transform="matrix(0.26458332,0,0,0.26458332,95.758629,627.21913)"
         d="m 33.841797,43.003906 a 9.4677566,9.4678028 0 0 0 -9.455078,9.466797 9.4677566,9.4678028 0 0 0 9.46875,9.46875 9.4677566,9.4678028 0 0 0 9.466797,-9.46875 9.4677566,9.4678028 0 0 0 -9.466797,-9.466797 9.4677566,9.4678028 0 0 0 -0.01172,0 z m 0.0098,5.560547 c 2.189783,0 3.90625,1.718383 3.90625,3.908203 0,2.189745 -1.716467,3.90625 -3.90625,3.90625 -2.189744,0 -3.904296,-1.716505 -3.904296,-3.90625 0,-2.189783 1.714552,-3.908203 3.904296,-3.908203 z"
         style="fill:#1a1a1a;stroke-width:9.99999;stroke-linecap:round;stroke-linejoin:round;paint-order:stroke fill markers"
         id="path855" />
      <path
         id="path853"
         d="m 98.260539,638.59711 a 2.5050105,2.5050227 0 0 0 -2.50162,2.50509 2.5050105,2.5050227 0 0 0 2.50508,2.5051 2.5050105,2.5050227 0 0 0 2.504791,-2.5051 2.5050105,2.5050227 0 0 0 -2.504791,-2.50509 2.5050105,2.5050227 0 0 0 -0.003,0 z"
         style="fill:#1a1a1a;stroke-width:2.64583;stroke-linecap:round;stroke-linejoin:round;paint-order:stroke fill markers" />
      <path
         transform="matrix(0.26458332,0,0,0.26458332,95.758629,627.21913)"
         d="m 58.228516,21.503906 a 9.4677566,9.4678028 0 0 0 -9.455078,9.466797 9.4677566,9.4678028 0 0 0 9.466796,9.466797 9.4677566,9.4678028 0 0 0 9.46875,-9.466797 9.4677566,9.4678028 0 0 0 -9.46875,-9.466797 9.4677566,9.4678028 0 0 0 -0.01172,0 z m 0.0098,5.560547 c 2.189783,0 3.904297,1.718383 3.904297,3.908203 0,2.189745 -1.714514,3.904297 -3.904297,3.904297 -2.189783,0 -3.904297,-1.714552 -3.904297,-3.904297 0,-2.189783 1.714514,-3.908203 3.904297,-3.908203 z"
         style="fill:#1a1a1a;stroke-width:9.99999;stroke-linecap:round;stroke-linejoin:round;paint-order:stroke fill markers"
         id="path849" />
      <path
         id="path847"
         d="m 104.71269,632.90855 a 2.5050105,2.5050227 0 0 0 -2.50163,2.5048 2.5050105,2.5050227 0 0 0 2.50509,2.5051 2.5050105,2.5050227 0 0 0 2.50508,-2.5051 2.5050105,2.5050227 0 0 0 -2.50508,-2.5048 2.5050105,2.5050227 0 0 0 -0.003,0 z"
         style="fill:#1a1a1a;stroke-width:2.64583;stroke-linecap:round;stroke-linejoin:round;paint-order:stroke fill markers" />
      <path
         id="path845"
         d="m 98.260709,632.90855 a 2.5050105,2.5050227 0 0 0 -2.50164,2.5048 2.5050105,2.5050227 0 0 0 2.50508,2.5051 2.5050105,2.5050227 0 0 0 2.505091,-2.5051 2.5050105,2.5050227 0 0 0 -2.505091,-2.5048 2.5050105,2.5050227 0 0 0 -0.003,0 z"
         style="fill:#1a1a1a;stroke-width:2.64583;stroke-linecap:round;stroke-linejoin:round;paint-order:stroke fill markers" />
      <path
         id="path841"
         d="m 111.16424,627.21913 a 2.5050105,2.5050227 0 0 0 -2.50135,2.50508 2.5050105,2.5050227 0 0 0 2.5048,2.50509 2.5050105,2.5050227 0 0 0 2.50508,-2.50509 2.5050105,2.5050227 0 0 0 -2.50508,-2.50508 2.5050105,2.5050227 0 0 0 -0.003,0 z"
         style="fill:#1a1a1a;stroke-width:2.64583;stroke-linecap:round;stroke-linejoin:round;paint-order:stroke fill markers" />
      <path
         id="path839"
         d="m 104.71254,627.21913 a 2.5050105,2.5050227 0 0 0 -2.50164,2.50508 2.5050105,2.5050227 0 0 0 2.5048,2.50509 2.5050105,2.5050227 0 0 0 2.50509,-2.50509 2.5050105,2.5050227 0 0 0 -2.50509,-2.50508 2.5050105,2.5050227 0 0 0 -0.003,0 z"
         style="fill:#1a1a1a;stroke-width:2.64583;stroke-linecap:round;stroke-linejoin:round;paint-order:stroke fill markers" />
      <path
         transform="matrix(0.26458332,0,0,0.26458332,95.758629,627.21913)"
         d="M 9.4550781,0 A 9.4677566,9.4678028 0 0 0 0,9.46875 9.4677566,9.4678028 0 0 0 9.46875,18.935547 9.4677566,9.4678028 0 0 0 18.935547,9.46875 9.4677566,9.4678028 0 0 0 9.46875,0 9.4677566,9.4678028 0 0 0 9.4570312,0 Z M 9.46875,5.5605469 c 2.189858,0 3.904297,1.7203734 3.904297,3.9101562 0,2.1897829 -1.714439,3.9042969 -3.904297,3.9042969 -2.189745,0 -3.9042969,-1.714514 -3.9042969,-3.9042969 0,-2.189745 1.7145519,-3.9101562 3.9042969,-3.9101562 z"
         style="fill:#1a1a1a;stroke-width:9.99999;stroke-linecap:round;stroke-linejoin:round;paint-order:stroke fill markers"
         id="path2893" />
    </g>
  </g>
</svg>
